<svg xmlns="http://www.w3.org/2000/svg" width="188.976" height="188.976" viewBox="0 0 50 50"><defs><linearGradient id="LogoGradient" gradientTransform="rotate(90)"><stop offset="0%" stop-color="#19afff" /><stop offset="100%" stop-color="#0062e0" /></linearGradient></defs><path d="M10 0A9.98 9.98 0 0 0 0 10v30a9.98 9.98 0 0 0 10 10h30a9.98 9.98 0 0 0 10-10V10a9.98 9.98 0 0 0-10-10H10zm15.598 8.603c2.01 0 3.918.248 5.722.744 1.818.496 3.492 1.226 5.02 2.2v4.442c-1.542-1.308-3.182-2.293-4.917-2.954s-3.56-.992-5.474-.992c-3.773 0-6.61 1.054-8.51 3.16-1.887 2.107-2.83 5.247-2.83 9.42 0 4.16.943 7.292 2.83 9.4 1.9 2.107 4.737 3.16 8.51 3.16 1.474 0 2.79-.124 3.946-.372 1.157-.262 2.196-.66 3.12-1.198V27.32h-6.817V23.9h10.95v13.242a18.44 18.44 0 0 1-5.33 2.603c-1.942.578-4.014.868-6.218.868-4.82 0-8.594-1.405-11.32-4.214-2.713-2.823-4.07-6.75-4.07-11.775 0-5.04 1.357-8.966 4.07-11.775 2.727-2.823 6.5-4.235 11.32-4.235z" fill="#fff"/></svg>